<?xml version="1.0" encoding="UTF-8" standalone="no"?>
<!-- Created with Inkscape (http://www.inkscape.org/) -->

<svg
   xmlns:dc="http://purl.org/dc/elements/1.1/"
   xmlns:cc="http://creativecommons.org/ns#"
   xmlns:rdf="http://www.w3.org/1999/02/22-rdf-syntax-ns#"
   xmlns:svg="http://www.w3.org/2000/svg"
   xmlns="http://www.w3.org/2000/svg"
   xmlns:sodipodi="http://sodipodi.sourceforge.net/DTD/sodipodi-0.dtd"
   xmlns:inkscape="http://www.inkscape.org/namespaces/inkscape"
   width="210mm"
   height="297mm"
   viewBox="0 0 210 297"
   version="1.1"
   id="svg879">
  <defs
     id="defs873" />
  <sodipodi:namedview
     id="base"
     pagecolor="#ffffff"
     bordercolor="#666666"
     borderopacity="1.0"
     inkscape:pageopacity="0.0"
     inkscape:pageshadow="2"
     inkscape:zoom="0.35"
     inkscape:cx="400"
     inkscape:cy="560"
     inkscape:document-units="mm"
     inkscape:current-layer="layer1"
     inkscape:document-rotation="0"
     showgrid="false" />
  <metadata
     id="metadata876">
    <rdf:RDF>
      <cc:Work
         rdf:about="">
        <dc:format>image/svg+xml</dc:format>
        <dc:type
           rdf:resource="http://purl.org/dc/dcmitype/StillImage" />
      </cc:Work>
    </rdf:RDF>
  </metadata>
  <g
     inkscape:label="Layer 1"
     inkscape:groupmode="layer"
     id="layer1">
    <path
       style="opacity:0.56;fill:#00ffff;fill-opacity:1;stroke:#005c87;stroke-width:2.865;stroke-linecap:butt;stroke-linejoin:miter;stroke-miterlimit:4;stroke-dasharray:none;stroke-opacity:1"
       d="m 138.64183,128.05833 c 31.24462,-33.028467 49.30106,-11.1715 48.94806,-10.84792 -13.59527,30.01427 -18.3118,13.4807 -48.94806,10.84792 l -13.22924,-42.862494 9.52506,-10.847921 z"
       id="path881"
       inkscape:connector-curvature="0"
       sodipodi:nodetypes="cccccc" />
    <path
       sodipodi:type="spiral"
       style="fill:none;fill-rule:evenodd;stroke:#000000;stroke-width:0.264583"
       id="path885"
       sodipodi:cx="90.222916"
       sodipodi:cy="177.8"
       sodipodi:expansion="1"
       sodipodi:revolution="3"
       sodipodi:radius="20.880302"
       sodipodi:argument="-19.002205"
       sodipodi:t0="0"
       d="m 90.222916,177.8 c 1.034731,-0.15919 0.725083,1.31626 0.264582,1.71979 -1.247929,1.09355 -3.07504,0.0766 -3.704166,-1.19062 -1.125359,-2.26673 0.447317,-4.85661 2.645835,-5.68854 3.226415,-1.2209 6.668342,0.97014 7.672916,4.10104 1.338938,4.17301 -1.491506,8.49157 -5.556254,9.65729 -5.11507,1.46694 -10.320471,-2.01192 -11.641664,-7.01146 -1.600142,-6.05512 2.531744,-12.1526 8.466672,-13.62604 6.994107,-1.73639 13.986753,3.05119 15.610413,9.92188 1.87458,7.93248 -3.57039,15.82226 -11.37709,17.59479 -8.87047,2.01406 -17.658707,-4.08941 -19.579162,-12.8323 -2.15446,-9.8082 4.608311,-19.49584 14.287508,-21.56354 10.745743,-2.29553 21.333494,5.12712 23.547914,15.74272" />
    <path
       sodipodi:type="spiral"
       style="fill:none;fill-rule:evenodd;stroke:#000000;stroke-width:0.264583"
       id="path887"
       sodipodi:cx="90.222916"
       sodipodi:cy="177.8"
       sodipodi:expansion="1"
       sodipodi:revolution="3"
       sodipodi:radius="40.767303"
       sodipodi:argument="-15.740419"
       sodipodi:t0="0"
       d="m 90.222916,177.8 c -2.042932,0.0663 -1.097321,-2.7211 -0.110243,-3.39548 2.674918,-1.82753 5.97841,0.57144 6.901215,3.175 1.650682,4.65715 -2.004002,9.30905 -6.460243,10.40694 -6.539714,1.6112 -12.698422,-3.44154 -13.912674,-9.74548 -1.618407,-8.40217 4.878956,-16.11042 13.03073,-17.41841 10.258175,-1.64597 19.533619,6.31585 20.924129,16.31597 1.6841,12.1115 -7.75235,22.96323 -19.601213,24.42987 -13.963474,1.72838 -26.396838,-9.18861 -27.93559,-22.88646 -1.77655,-15.81472 10.624682,-29.83313 26.171701,-31.44132 17.665512,-1.82733 33.271292,12.06064 34.947052,29.45694 1.87995,19.51602 -13.49653,36.71081 -32.742191,38.45278 -21.366328,1.93391 -40.151361,-14.93236 -41.958507,-36.02743" />
    <path
       sodipodi:type="spiral"
       style="fill:none;fill-rule:evenodd;stroke:#000000;stroke-width:0.264583"
       id="path889"
       sodipodi:cx="175.15417"
       sodipodi:cy="116.68124"
       sodipodi:expansion="1"
       sodipodi:revolution="3"
       sodipodi:radius="2.276032"
       sodipodi:argument="-18.229307"
       sodipodi:t0="0"
       d="m 175.15417,116.68124 c 0.0929,0.0663 -0.0436,0.15789 -0.11024,0.15434 -0.18061,-0.01 -0.24579,-0.22806 -0.19844,-0.37483 0.0847,-0.26253 0.40454,-0.34494 0.63941,-0.24253 0.3447,0.15028 0.44653,0.58321 0.28664,0.90399 -0.21312,0.42754 -0.76267,0.54912 -1.16858,0.33073 -0.5108,-0.27483 -0.65223,-0.94247 -0.37483,-1.43316 0.33598,-0.59429 1.12247,-0.75564 1.69775,-0.41893 0.67793,0.39681 0.85923,1.3026 0.46302,1.96233 -0.45744,0.76168 -1.48281,0.96295 -2.22691,0.50712 -0.84549,-0.51795 -1.06676,-1.66308 -0.55122,-2.49149 0.57836,-0.92935 1.8434,-1.17063 2.75608,-0.59532 1.01325,0.63871 1.27454,2.02374 0.63941,3.02066" />
    <path
       style="fill:none;stroke:#000000;stroke-width:0.965;stroke-linecap:butt;stroke-linejoin:miter;stroke-opacity:1;stroke-miterlimit:4;stroke-dasharray:none"
       d="m 169.8625,134.67291 c -0.55811,33.85427 -0.0744,2.00918 0,0 z"
       id="path1503"
       inkscape:connector-curvature="0"
       sodipodi:nodetypes="cc" />
    <path
       style="fill:none;stroke:#000000;stroke-width:0.965;stroke-linecap:butt;stroke-linejoin:miter;stroke-opacity:1;stroke-miterlimit:4;stroke-dasharray:none"
       d="m 163.5125,133.08541 -0.26459,17.4625 z"
       id="path1505"
       inkscape:connector-curvature="0" />
    <path
       style="fill:none;stroke:#000000;stroke-width:0.264583px;stroke-linecap:butt;stroke-linejoin:miter;stroke-opacity:1"
       d="m 163.24791,150.54791 c -0.78389,0.42039 -1.72086,0.63404 -2.35166,1.26118 -0.65046,0.64669 -0.86972,1.61575 -1.33634,2.40543 -1.4874,2.51713 -3.07502,5.05908 -5.07813,7.21627 -0.38816,0.41803 -0.89811,0.70388 -1.33634,1.06908 -0.0968,0.0807 -0.14128,0.26727 -0.26727,0.26727 -0.0891,0 -0.0449,-0.19031 0,-0.26727 0.58529,-1.00336 1.22655,-1.97346 1.87088,-2.93996 0.95953,-1.43929 1.96868,-2.84494 2.93997,-4.27632 0.72146,-1.0632 1.44015,-2.12849 2.13815,-3.20723 0.30991,-0.47894 0.66571,-1.73972 1.06908,-1.33635 0.17397,0.17397 -2.52229,4.28038 -2.67269,4.54358 -0.36914,0.646 -0.80181,1.39089 -0.80181,2.13816 0,0.36733 -0.26727,1.4364 -0.26727,1.06908 0,-0.63796 0.76411,-0.72054 1.06908,-1.06908 1.04914,-1.19901 1.97214,-2.87521 2.67269,-4.27631 0.16428,-0.32855 0.103,-0.74053 0.26727,-1.06908 0.30658,-0.61315 1.09874,-1.87089 1.06908,-1.87089 -0.0891,0 -0.0844,0.2388 0,0.26727 0.32157,0.10846 0.80331,-0.18983 1.01531,0.0752 0.58926,0.73657 0.7083,1.75022 1.12285,2.59753 0.63129,1.29032 1.60361,2.2792 1.60361,3.74177 0,0.89586 -0.63213,1.55705 -0.8018,2.40543 -0.13929,0.69642 0.073,2.06511 0.53454,1.60361 0.32699,-0.32699 -1.00119,-6.0664 -1.06908,-6.949 -0.0235,-0.30507 0.10361,-3.20724 -0.26727,-3.20724 -0.36733,0 0.0232,0.79454 0.26727,1.06908 0.58536,0.65853 9.27107,8.63599 8.81989,9.08716 -0.44995,0.44995 -1.77394,-1.96836 -2.13816,-2.40542 -1.15989,-1.39188 -2.73048,-2.49212 -3.74177,-4.00905 -0.60677,-0.91015 -0.94496,-2.06176 -1.60362,-2.93996 -1.61681,-2.15575 -0.72285,-1.07668 -2.13815,-2.13816 -0.25698,-0.19273 -0.78958,-0.85552 -0.80181,-0.53453 -0.0215,0.56369 0.14233,1.11918 0.2135,1.67878"
       id="path1515"
       inkscape:connector-curvature="0" />
    <path
       style="fill:none;stroke:#000000;stroke-width:0.264583px;stroke-linecap:butt;stroke-linejoin:miter;stroke-opacity:1"
       d="m 163.24791,150.54791 c 1.53245,-0.20324 3.06658,-0.39416 4.59735,-0.60971 0.31808,-0.0448 -0.5884,0.29446 -0.80181,0.53454 -0.54568,0.6139 -1.00647,1.30692 -1.60361,1.87089 -11.13615,10.51747 4.00324,-4.80456 -5.61267,5.61266 -0.21787,0.23603 -0.57467,0.3074 -0.8018,0.53454 -0.14087,0.14086 -0.41534,0.6678 -0.26727,0.53454 3.70181,-3.33163 7.30536,-6.77083 10.95805,-10.15624 0.71272,0.17818 1.4463,0.28745 2.13816,0.53454 3.10722,1.10972 4.60232,4.19004 6.41446,6.68173 0.37787,0.51957 1.52335,1.14935 1.06908,1.60362 -0.43004,0.43004 -0.53454,-0.30405 -0.53454,-0.53454"
       id="path1517"
       inkscape:connector-curvature="0" />
    <path
       style="fill:none;stroke:#000000;stroke-width:0.264583px;stroke-linecap:butt;stroke-linejoin:miter;stroke-opacity:1"
       d="m 169.71615,148.86913 c 1.42544,5.61266 2.85087,11.22532 4.27631,16.83798 -0.42842,0.082 -0.26727,-0.24382 -0.26727,-0.53454"
       id="path1519"
       inkscape:connector-curvature="0" />
    <path
       style="fill:none;stroke:#000000;stroke-width:0.264583px;stroke-linecap:butt;stroke-linejoin:miter;stroke-opacity:1"
       d="m 173.72519,165.17257 -4.00904,-16.30344"
       id="path1521"
       inkscape:connector-curvature="0" />
  </g>
</svg>
