<?xml version="1.0" encoding="UTF-8" standalone="no"?>
<svg
   xmlns:osb="http://www.openswatchbook.org/uri/2009/osb"
   xmlns:dc="http://purl.org/dc/elements/1.1/"
   xmlns:cc="http://creativecommons.org/ns#"
   xmlns:rdf="http://www.w3.org/1999/02/22-rdf-syntax-ns#"
   xmlns:svg="http://www.w3.org/2000/svg"
   xmlns="http://www.w3.org/2000/svg"
   xmlns:xlink="http://www.w3.org/1999/xlink"
   xmlns:sodipodi="http://sodipodi.sourceforge.net/DTD/sodipodi-0.dtd"
   xmlns:inkscape="http://www.inkscape.org/namespaces/inkscape"
   sodipodi:docname="testingDrawing.svg"
   inkscape:version="1.0beta2 (2b71d25, 2019-12-03)"
   id="svg8"
   version="1.1"
   viewBox="0 0 210 297"
   height="297mm"
   width="210mm">
  <defs
     id="defs2">
    <linearGradient
       osb:paint="solid"
       id="linearGradient861">
      <stop
         id="stop859"
         offset="0"
         style="stop-color:#000000;stop-opacity:1;" />
    </linearGradient>
    <linearGradient
       gradientUnits="userSpaceOnUse"
       y2="158.37282"
       x2="191.38949"
       y1="158.37282"
       x1="123.84141"
       id="linearGradient863"
       xlink:href="#linearGradient861"
       inkscape:collect="always" />
  </defs>
  <sodipodi:namedview
     inkscape:window-maximized="0"
     inkscape:window-y="157"
     inkscape:window-x="24"
     inkscape:window-height="755"
     inkscape:window-width="1280"
     showgrid="false"
     inkscape:document-rotation="0"
     inkscape:current-layer="layer1"
     inkscape:document-units="mm"
     inkscape:cy="854.37705"
     inkscape:cx="251.25325"
     inkscape:zoom="0.92370266"
     inkscape:pageshadow="2"
     inkscape:pageopacity="0.0"
     borderopacity="1.0"
     bordercolor="#666666"
     pagecolor="#ffffff"
     id="base" />
  <metadata
     id="metadata5">
    <rdf:RDF>
      <cc:Work
         rdf:about="">
        <dc:format>image/svg+xml</dc:format>
        <dc:type
           rdf:resource="http://purl.org/dc/dcmitype/StillImage" />
        <dc:title></dc:title>
      </cc:Work>
    </rdf:RDF>
  </metadata>
  <g
     id="layer1"
     inkscape:groupmode="layer"
     inkscape:label="Layer 1">
    <path
       inkscape:connector-curvature="0"
       d="m 138.21848,23.743898 c -0.22869,0.359788 -0.4344,0.735266 -0.68608,1.079364 -0.87535,1.196765 -1.84805,2.319979 -2.73038,3.511612 -2.12261,2.866713 -4.06709,5.855499 -6.06074,8.812062 -4.31332,6.867356 -8.85628,13.566957 -14.09812,19.759832 -2.68659,2.877341 -5.43713,5.788358 -8.72728,7.989855 -0.46501,0.311143 -1.91539,1.157275 -1.43082,0.87757 2.76822,-1.597876 5.52147,-3.221558 8.28221,-4.832336 -3.11235,1.218737 -15.05898,7.760192 -10.25783,7.48756 5.11569,-0.399413 10.25827,-0.460044 15.38125,-0.199808 3.61204,0.317405 7.21343,0.83884 10.58112,2.24935 2.61557,1.095491 3.4147,1.685938 5.87554,3.141977 2.98104,1.808369 5.57281,4.14383 8.30601,6.282632 2.15512,1.686438 4.30438,3.453339 7.1174,4.006762 2.48701,0.489281 5.06059,0.297863 7.59088,0.446797 14.49242,-1.281488 27.92308,-7.012686 41.20529,-12.525462 0,0 6.36655,-5.026874 6.36655,-5.026874 v 0 c -12.89557,5.559096 -25.96949,11.369674 -40.18953,12.274322 -2.23595,-0.215257 -4.52249,-0.126095 -6.70783,-0.645769 -2.64916,-0.629965 -4.61376,-2.409613 -6.67341,-4.000944 -2.78285,-2.150089 -5.46374,-4.437539 -8.40523,-6.374323 -2.72642,-1.707788 -5.43354,-3.463843 -8.50363,-4.509778 -2.63062,-0.896215 -5.40465,-1.007629 -8.13452,-1.369491 -4.91513,-0.309661 -9.84078,-0.07169 -14.75849,-0.387641 -4.50505,0.138438 -14.322519,9.174366 -7.31868,6.048867 3.44391,-2.001777 6.9082,-3.968896 10.33173,-6.005336 3.70067,-2.20129 6.38288,-5.851924 9.34525,-8.866351 5.18337,-6.25408 9.66175,-13.014968 14.04899,-19.844409 3.31247,-4.757867 6.72321,-9.434014 10.53274,-13.811104 0,0 -10.28239,4.431064 -10.28239,4.431064 z"
       id="path853"
       style="fill:#000000;fill-opacity:1;fill-rule:nonzero;stroke:none;stroke-width:0.264583" />
    <path
       inkscape:connector-curvature="0"
       d="m 87.981339,34.659736 c 0.225809,0.746464 0.402826,1.509469 0.677431,2.239397 7.037335,18.705835 -2.194173,-7.207835 6.492481,16.944704 1.245074,3.461825 2.35567,6.971581 3.631202,10.422298 2.316187,6.266026 5.313677,13.440745 7.858757,19.653223 1.10297,2.567683 2.20593,5.135367 3.3089,7.70305 0,0 7.57499,-4.286647 7.57499,-4.286647 v 0 c -1.25309,-2.472693 -2.50617,-4.945385 -3.75925,-7.418078 -1.36442,-3.041967 -2.81027,-6.0487 -4.09326,-9.125902 -2.6521,-6.361017 -5.52569,-14.189797 -7.53657,-20.784759 -2.00048,-6.560828 -4.07848,-13.506598 -4.153076,-20.443359 0,0 -10.001605,5.096073 -10.001605,5.096073 z"
       id="path855"
       style="fill:#000000;fill-opacity:1;fill-rule:nonzero;stroke:none;stroke-width:0.264583" />
    <path
       inkscape:connector-curvature="0"
       id="path857"
       d="m 125.48809,198.05952 -1.5119,-80.13095 66.52381,-0.75595 0.75595,82.3988 z"
       style="fill:none;stroke:url(#linearGradient863);stroke-width:1.165;stroke-linecap:butt;stroke-linejoin:miter;stroke-opacity:1;fill-opacity:1;stroke-miterlimit:4;stroke-dasharray:none;stroke-dashoffset:0" />
    <path
       sodipodi:nodetypes="cccccc"
       inkscape:connector-curvature="0"
       id="path865"
       d="m 128.5119,216.20238 h 34.01786 l 16.63095,16.63095 -10.58333,18.14286 c -25.83367,3.05561 -34.66291,0.10608 -52.16071,-16.63095 z"
       style="fill:none;stroke:#000000;stroke-width:0.264583px;stroke-linecap:butt;stroke-linejoin:miter;stroke-opacity:1" />
    <path
       inkscape:connector-curvature="0"
       id="path867"
       d="M 37.041666,9.0714284 H 61.232142 L 75.595238,21.166666 87.981339,34.659736 66.523808,54.428572 H 34.773809 L 20.410714,43.845239 18.898809,21.922619 Z"
       style="fill:none;stroke:#000000;stroke-width:0.264583px;stroke-linecap:butt;stroke-linejoin:miter;stroke-opacity:1" />
    <path
       inkscape:connector-curvature="0"
       id="path869"
       d="m 38.553572,110.36905 27.970236,-0.75596 15.875,15.875 0.755952,24.19048 -15.875,18.14286 -24.946427,0.75595 -21.166667,-15.11905 -0.755952,-25.70238 z"
       style="fill:none;stroke:#00c400;stroke-width:7.365;stroke-linecap:butt;stroke-linejoin:miter;stroke-opacity:1;stroke-miterlimit:4;stroke-dasharray:none" />
    <path
       sodipodi:nodetypes="cccccc"
       inkscape:transform-center-y="23.805395"
       inkscape:transform-center-x="-15.885188"
       inkscape:connector-curvature="0"
       id="path871"
       d="M 30.53538,195.91433 76.027467,261.3846 46.215901,192.12161 C 103.6971,177.36535 92.75159,276.14158 92.75159,276.14158 l -69.999724,-0.77153 z"
       style="fill:none;stroke:#d30000;stroke-width:1.6956;stroke-linecap:butt;stroke-linejoin:miter;stroke-miterlimit:4;stroke-dasharray:none;stroke-opacity:1" />
  </g>
</svg>
